<svg data-v-423bf9ae="" xmlns="http://www.w3.org/2000/svg" viewBox="0 0 259 90" class="iconLeft"><!----><!----><!----><g data-v-423bf9ae="" id="175f9bf0-4c96-4074-bfa7-0685442d1099" fill="#FFFFFF" transform="matrix(4.367276689790059,0,0,4.367276689790059,108.95414031364419,15.436729009140684)"><path d="M4.35 9.03C4.24 9.28 3.92 9.58 3.51 9.58C2.83 9.58 2.46 9.18 2.46 8.23L2.46 4.03L4.07 4.03L4.13 3.82L2.46 3.82L2.46 1.65L0.98 1.89L0.98 3.82L0.24 3.82L0.28 4.03L0.98 4.03L0.98 8.27C0.98 9.97 1.62 10.42 2.67 10.42C3.56 10.42 4.30 9.77 4.54 9.14L4.35 9.03ZM10.07 7.06C10.07 9.59 9.59 10.21 8.54 10.21C7.50 10.21 7.01 9.59 7.01 7.06C7.01 4.52 7.50 3.91 8.54 3.91C9.59 3.91 10.07 4.52 10.07 7.06ZM11.83 7.06C11.83 5.21 10.68 3.70 8.54 3.70C6.41 3.70 5.26 5.21 5.26 7.06C5.26 8.89 6.41 10.42 8.54 10.42C10.68 10.42 11.83 8.89 11.83 7.06ZM17.91 8.30C17.91 9.28 17.26 9.97 16.32 9.97C15.15 9.97 14.56 9.04 14.56 6.80C14.56 4.62 15.25 3.91 16.23 3.91C17.05 3.91 17.91 4.54 17.91 6.09ZM20.09 9.91C19.52 9.87 19.38 9.74 19.38 9.06L19.38-0.10L17.19 0.35L17.19 0.56C17.77 0.71 17.91 0.88 17.91 1.37L17.91 4.16C17.46 3.88 16.87 3.70 16.20 3.70C14.29 3.70 12.84 4.75 12.84 6.97C12.84 9.04 14.07 10.42 15.81 10.42C16.48 10.42 17.46 10.11 17.91 9.34L17.91 10.15C17.91 10.15 17.91 10.46 18.30 10.40L20.09 10.12ZM24.46 6.92C24.46 6.92 24.46 8.88 24.46 8.90C24.33 9.24 24.00 9.67 23.39 9.67C22.51 9.67 22.39 8.86 22.39 8.67C22.39 7.88 22.96 7.25 24.46 6.92ZM27.02 9.37C26.94 9.66 26.63 9.66 26.63 9.66C25.97 9.66 25.97 8.74 25.97 8.74L25.97 6.50C25.97 4.84 25.52 3.70 23.84 3.70C23.84 3.70 23.13 3.65 22.51 3.98C21.76 4.38 21.55 4.77 21.42 5.00C21.29 5.22 21.31 5.53 21.48 5.77C21.70 6.09 22.16 6.16 22.48 5.94C22.81 5.70 22.89 5.25 22.65 4.93C22.53 4.76 22.37 4.68 22.18 4.65C22.09 4.63 22.16 4.38 22.65 4.13C23.70 3.63 24.46 4.40 24.46 5.84L24.46 6.68C22.04 7.29 20.86 7.52 20.86 8.99C20.86 10.42 22.47 10.42 22.47 10.42C23.45 10.42 24.28 9.90 24.47 9.25C24.60 10.43 25.76 10.42 25.76 10.42C26.57 10.42 27.13 9.88 27.23 9.45ZM31.53 3.82L31.53 4.02C33.15 4.00 32.26 6.19 32.26 6.19L31.42 8.40L29.81 4.96C29.81 4.96 29.39 4.02 30.20 4.02L30.20 3.82L27.10 3.82L27.10 4.02C27.31 4.03 27.79 4.06 28.04 4.65C28.04 4.65 29.40 7.53 30.67 10.37L30.09 11.98C29.88 12.54 29.55 12.68 29.50 12.50C29.44 12.29 29.30 12.10 29.08 12.00C28.64 11.80 28.14 12.00 27.94 12.43C27.76 12.87 27.94 13.37 28.38 13.57C28.67 13.71 29.11 13.62 29.33 13.44C29.57 13.26 29.96 12.89 30.30 12.01L32.45 6.23C33.31 4.10 33.87 4.02 34.26 4.02L34.26 3.82Z"></path></g><!----><g data-v-423bf9ae="" id="a9935db9-3fa6-49fd-9f85-6ea0c2641bee" transform="matrix(1.1679507397512434,0,0,1.1679507397512434,-12.927535126177816,-12.926387661960334)" stroke="none" fill="#E6767A"><path d="M64.374 14.24a38.384 38.384 0 0 0-14.375-2.77c-19.658 0-35.879 14.723-38.234 33.742a38.838 38.838 0 0 0-.295 4.789c0 21.281 17.25 38.527 38.529 38.527 21.283 0 38.531-17.246 38.531-38.527 0-16.202-9.994-30.065-24.156-35.761zm-7.758 36.044l-10.985 16.56a1.498 1.498 0 0 1-2.079.421 1.5 1.5 0 0 1-.421-2.079l9.631-14.518-11.545-1.318a1.502 1.502 0 0 1-1.08-2.319l11.2-16.881a1.5 1.5 0 0 1 2.5 1.658l-9.846 14.839 11.545 1.318a1.498 1.498 0 0 1 1.08 2.319z"></path></g><!----></svg>